<svg width="63" height="63" viewBox="0 0 63 63" fill="none" xmlns="http://www.w3.org/2000/svg">
<g clip-path="url(#clip0_2_2)">
<path opacity="0.85" d="M31.5 0C25.2699 0 19.1797 1.84744 13.9995 5.30871C8.81939 8.76997 4.78195 13.6896 2.39779 19.4455C0.0136333 25.2013 -0.610172 31.5349 0.605263 37.6453C1.8207 43.7557 4.82078 49.3685 9.22614 53.7739C13.6315 58.1792 19.2443 61.1793 25.3547 62.3947C31.4651 63.6102 37.7987 62.9864 43.5545 60.6022C49.3104 58.218 54.23 54.1806 57.6913 49.0005C61.1526 43.8203 63 37.7301 63 31.5C62.9921 23.1481 59.6708 15.1406 53.7651 9.23491C47.8594 3.32923 39.8519 0.00794283 31.5 0V0ZM31.5 60C25.8632 60 20.353 58.3285 15.6662 55.1969C10.9794 52.0653 7.32653 47.6142 5.16943 42.4065C3.01233 37.1988 2.44794 31.4684 3.54762 25.9399C4.6473 20.4115 7.36166 15.3333 11.3475 11.3475C15.3333 7.36166 20.4115 4.6473 25.9399 3.54762C31.4684 2.44794 37.1988 3.01234 42.4065 5.16943C47.6142 7.32653 52.0653 10.9794 55.1969 15.6662C58.3285 20.353 60 25.8632 60 31.5C59.9894 39.0554 56.9833 46.2984 51.6409 51.6409C46.2984 56.9833 39.0554 59.9894 31.5 60V60Z" fill="white"/>
<path d="M31.5 10C28.3336 10 25.7666 12.5669 25.7666 15.7334V21.4667H37.2333V15.7334C37.2334 12.5669 34.6664 10 31.5 10Z" fill="white"/>
<path d="M25.7666 23.76V29.4934C25.7666 32.6597 28.3335 35.2267 31.5 35.2267C34.6665 35.2267 37.2334 32.6598 37.2334 29.4934V23.76H25.7666Z" fill="white"/>
<path d="M44.1134 29.4934H40.6734C40.6734 34.5516 36.5582 38.6667 31.5 38.6667C26.4418 38.6667 22.3266 34.5516 22.3266 29.4934H18.8866C18.8866 35.8649 23.6358 41.1474 29.78 41.9889V49.56H25.7666V53H37.2333V49.56H33.22V41.9889C39.3642 41.1474 44.1134 35.8649 44.1134 29.4934Z" fill="white"/>
</g>
<defs>
<clipPath id="clip0_2_2">
<rect width="63" height="63" fill="white"/>
</clipPath>
</defs>
</svg>
